<?xml version="1.0" encoding="utf-8"?>
<!-- Generator: Adobe Illustrator 19.2.1, SVG Export Plug-In . SVG Version: 6.00 Build 0)  -->
<svg version="1.1" baseProfile="tiny" id="Calque_1"
	 xmlns="http://www.w3.org/2000/svg" xmlns:xlink="http://www.w3.org/1999/xlink" x="0px" y="0px" width="210px" height="80px"
	 viewBox="0 0 210 80" xml:space="preserve" fill="#555">
<g>
	<g>
		<path d="M102.9,60.9h-5.7l-1.4,3.1h-1l4.8-10.8h0.8l4.8,10.8h-1L102.9,60.9z M102.6,60.1l-2-4.5c-0.2-0.6-0.5-1.2-0.5-1.2h0
			c0,0-0.3,0.7-0.5,1.2l-2,4.5H102.6z"/>
		<path d="M112.3,53.3c3.1,0,5.6,2.2,5.6,5.4c0,3.2-2.5,5.3-5.4,5.3h-4.6V53.3H112.3z M112.4,63.2c2.4,0,4.5-1.7,4.5-4.5
			c0-2.8-2.1-4.6-4.7-4.6h-3.6v9.1H112.4z"/>
		<path d="M129.3,53.3l-4.7,10.8h-0.9L119,53.3h1l3.6,8.2c0.3,0.6,0.6,1.6,0.6,1.6h0c0,0,0.4-0.9,0.6-1.6l3.6-8.2H129.3z"/>
		<path d="M138.8,63.2v0.8h-7.1V53.3h7v0.8h-6.1v3.8h4.9v0.8h-4.9v4.5H138.8z"/>
		<path d="M150.6,53.3v10.8h-0.8l-5.5-7.4c-0.9-1.3-1.4-2-1.4-2h0c0,0,0,1.3,0,2.8v6.6H142V53.3h0.8l5.5,7.4
			c0.8,1.1,1.4,1.9,1.4,1.9h0c0,0,0-1.3,0-2.7v-6.5H150.6z"/>
		<path d="M161.5,53.3v0.8h-3.7v9.9h-0.9v-9.9h-3.7v-0.8H161.5z"/>
		<path d="M172.5,53.3v6.4c0,3-1.5,4.6-4.3,4.6c-2.8,0-4.3-1.6-4.3-4.6v-6.4h0.9v6.4c0,2.5,1.2,3.7,3.4,3.7c2.3,0,3.4-1.2,3.4-3.7
			v-6.4H172.5z"/>
		<path d="M182.2,64.1l-2.6-4.2c-0.2,0-0.5,0-0.7,0h-2.2v4.2h-0.9V53.3h3.1c2.5,0,4,1.3,4,3.3c0,1.6-0.9,2.6-2.3,3.1l2.7,4.4H182.2z
			 M178.9,59.1c2,0,3-1,3-2.5c0-1.6-1.2-2.5-3-2.5h-2.2v5H178.9z"/>
		<path d="M193.3,63.2v0.8h-7.1V53.3h7v0.8h-6.1v3.8h4.9v0.8h-4.9v4.5H193.3z"/>
	</g>
	<g id="XMLID_2_">
		<g>
			<path d="M131.4,22l10.9,27.3h-7.1l-1.6-4.3h-10.8l-1.6,4.3h-7.1L125.2,22H131.4z M131.6,39.3l-1.9-5.3c-0.6-1.6-1.3-4-1.3-4h0
				c0,0-0.7,2.4-1.3,4l-1.9,5.3H131.6z"/>
			<path d="M180.2,33.7l11.7,15.7h-7.7L175.9,38l-2.3,2.3v9H167V31.4V22h6.5v4.5c0,4.5-0.1,5.8-0.1,5.8h0c0,0,0.8-0.9,3.6-3.7
				l0.9-0.9c3.6-3.6,8.6-5.7,13.7-5.7L180.2,33.7z"/>
			<path d="M67.7,41.1c-2.1,5.3-7.2,8.8-13.2,8.8c-5.4,0-10.1-2.8-12.5-7.3c-1.1-2-1.7-4.4-1.7-6.9s0.6-4.9,1.7-6.9
				c2.4-4.4,7.1-7.3,12.5-7.3c6,0,11.1,3.5,13.2,8.8c-0.7,1.6-1,3.5-1,5.4C66.7,37.6,67,39.5,67.7,41.1z M61.8,35.7
				c0-4.6-2.9-7.7-7.4-7.7c-4.4,0-7.3,3.1-7.3,7.7c0,4.6,2.9,7.7,7.3,7.7C58.9,43.4,61.8,40.3,61.8,35.7z"/>
			<path d="M159.6,39.3l6.1,10.1h-7.3l-5.1-8.9h-3.4v8.9h-6.5V22h10.2c6.9,0,11,3.7,11,9.4C164.5,35.1,162.7,37.8,159.6,39.3z
				 M157.7,31.4c0-1.5-0.9-3.2-3.3-3.2h-4.5v6.5h4.5C156.7,34.6,157.7,32.9,157.7,31.4z"/>
			<path d="M67.7,30.3c0.6,1.6,1,3.5,1,5.4c0,1.9-0.4,3.8-1,5.4c-0.7-1.6-1-3.5-1-5.4C66.7,33.8,67,31.9,67.7,30.3z"/>
			<path d="M32.3,28.1c0,0-2.5,0.1-4.2,0.1h-10l0.5-0.5c3.7-3.6,8.6-5.7,13.7-5.7h8.5v6.1L29.1,40.7c-1.2,1.3-2.5,2.6-2.5,2.6l0,0
				c0,0,1.9-0.1,4.2-0.1h9.9v6.1H17.7c0-2,0.4-3.9,1.1-5.7c0.7-1.8,1.8-3.5,3.1-4.9l7.9-8.4C30.8,29.4,32.4,28.1,32.3,28.1
				L32.3,28.1z"/>
			<path d="M67.7,30.3c2.1-5.3,7.2-8.8,13.2-8.8c7.8,0,14.2,6,14.2,14.2s-6.4,14.2-14.2,14.2c-6,0-11.1-3.5-13.2-8.8
				c0.6-1.6,1-3.5,1-5.4C68.7,33.8,68.3,31.9,67.7,30.3z M88.2,35.7c0-4.6-2.9-7.7-7.4-7.7c-4.4,0-7.3,3.1-7.3,7.7
				c0,4.6,2.9,7.7,7.3,7.7C85.3,43.4,88.2,40.3,88.2,35.7z"/>
		</g>
	</g>
	<path d="M108.5,22c6.7,0,10.8,3.5,10.8,9.4c0,5.9-4.1,9.4-10.8,9.4h-5.6v3.8c0,2.7-2.2,4.8-4.8,4.8h-1.7V30c0-4.4,3.6-8,8-8H108.5z
		 M108.4,34.6c2.5,0,4.1-1.2,4.1-3.2c0-2-1.5-3.2-4.1-3.2h-5.4v6.5H108.4z"/>
	<path d="M96.4,30.6h6.5V20h0c-3.6,0-6.5,2.9-6.5,6.5V30.6z"/>
	<path d="M107.9,24.1v-4.2c-2.8,0-5.1,1.7-6.1,4.2H107.9z"/>
	<circle cx="107.3" cy="31.4" r="1.5"/>
</g>
</svg>
