<?xml version="1.0" encoding="utf-8"?>
<!-- Generator: Adobe Illustrator 19.2.1, SVG Export Plug-In . SVG Version: 6.00 Build 0)  -->
<svg version="1.1" baseProfile="tiny" id="Calque_1"
	 xmlns="http://www.w3.org/2000/svg" xmlns:xlink="http://www.w3.org/1999/xlink" x="0px" y="0px" width="60px" height="45px"
	 viewBox="0 0 60 45" xml:space="preserve" fill="#555">
<g>
	<g id="XMLID_6_">
		<g>
			<path d="M29.7,30.9V37H6.6c0-2,0.4-3.9,1.1-5.7c0.7-1.8,1.8-3.4,3.1-4.9l7.9-8.4c1-1.1,2.5-2.3,2.5-2.3l0,0c0,0-2.5,0.1-4.2,0.1
				H7l0.5-0.4c3.7-3.6,8.6-5.7,13.7-5.7h8.5v6.1L18,28.4c-1.2,1.3-2.5,2.6-2.5,2.6l0,0c0,0,1.9-0.1,4.2-0.1H29.7z"/>
		</g>
	</g>
</g>
<path d="M43.2,9.8c6.7,0,10.8,3.5,10.8,9.4c0,5.9-4.1,9.4-10.8,9.4h-5.6v3.8c0,2.7-2.2,4.8-4.8,4.8h-1.7V17.7c0-4.4,3.6-8,8-8H43.2z
	 M43.1,22.4c2.5,0,4.1-1.2,4.1-3.2c0-2-1.5-3.2-4.1-3.2h-5.4v6.5H43.1z"/>
<path d="M31.1,18.3h6.5V7.7h0c-3.6,0-6.5,2.9-6.5,6.5V18.3z"/>
<path d="M42.6,11.8V7.7c-2.8,0-5.1,1.7-6.1,4.2H42.6z"/>
<circle cx="42" cy="19.2" r="1.5"/>
</svg>
